<svg width="54" height="52" viewBox="0 0 54 52" fill="none" xmlns="http://www.w3.org/2000/svg">
<path d="M18.0888 14.7091L24.3554 2.17597C25.0643 0.72984 26.794 0.134374 28.2401 0.871617C28.8072 1.15517 29.2609 1.63722 29.5444 2.20433L35.4424 14.2838C35.9244 15.2479 36.8602 15.9284 37.9377 16.0702L50.3007 17.5447C51.9736 17.7715 53.1929 19.3027 52.9944 21.004C52.9094 21.6846 52.5975 22.3367 52.0871 22.8471L42.3044 32.5447C41.9074 32.9133 41.7373 33.4804 41.794 34.0475L43.4103 47.1194C43.6655 48.9909 42.3328 50.7206 40.4897 50.9474C39.7808 51.0325 39.0719 50.8907 38.4481 50.5504L28.1267 44.8794C27.3894 44.4824 26.482 44.454 25.7165 44.851L15.0264 50.3803C13.5236 51.1459 11.6805 50.5504 10.9149 49.0193C10.603 48.4521 10.5179 47.8 10.603 47.1761L11.4536 41.1648C11.879 38.2158 13.6937 35.6922 16.3024 34.3311L28.1834 28.2347C28.4953 28.0645 28.6087 27.6676 28.4669 27.3557C28.3252 27.1005 28.07 26.9587 27.7864 27.0154L13.2684 29.1137C11.0567 29.4256 8.78822 28.8018 7.05853 27.3557L2.20974 23.3859C0.820323 22.2517 0.621835 20.2101 1.7277 18.7923C2.26645 18.1685 3.0037 17.7431 3.82601 17.6297L16.2457 16.0135C17.0397 15.9284 17.7202 15.418 18.0888 14.7091Z" fill="url(#paint0_linear_1007_53)"/>
<path d="M18.0888 14.7091L24.3554 2.17597C25.0643 0.72984 26.794 0.134374 28.2401 0.871617C28.8072 1.15517 29.2609 1.63722 29.5444 2.20433L35.4424 14.2838C35.9244 15.2479 36.8602 15.9284 37.9377 16.0702L50.3007 17.5446C51.9736 17.7715 53.1929 19.3027 52.9944 21.004C52.9094 21.6846 52.5975 22.3367 52.0871 22.8471L42.3044 32.5447C41.9074 32.9133 41.7373 33.4804 41.794 34.0476L43.4103 47.1194C43.6655 48.9909 42.3328 50.7206 40.4897 50.9474C39.7808 51.0325 39.0719 50.8907 38.4481 50.5504L28.1267 44.8794C27.3894 44.4824 26.482 44.454 25.7165 44.851L15.0264 50.3803C13.5236 51.1459 11.6805 50.5505 10.9149 49.0193C10.603 48.4521 10.5179 47.8 10.603 47.1761L11.4536 41.1648C11.879 38.2158 13.6937 35.6922 16.3024 34.3311L28.1834 28.2347C28.4953 28.0645 28.6087 27.6676 28.4669 27.3557C28.3252 27.1005 28.07 26.9587 27.7864 27.0154L13.2684 29.1137C11.0567 29.4256 8.78822 28.8018 7.05853 27.3557L2.20974 23.3859C0.820323 22.2517 0.621835 20.2101 1.7277 18.7923C2.26645 18.1685 3.0037 17.7431 3.82601 17.6297L16.2457 16.0135C17.0397 15.9284 17.7202 15.418 18.0888 14.7091V14.7091Z" stroke="url(#paint1_linear_1007_53)" stroke-width="0.89"/>
<defs>
<linearGradient id="paint0_linear_1007_53" x1="1301.02" y1="42.1486" x2="3767.63" y2="5496.95" gradientUnits="userSpaceOnUse">
<stop stop-color="#FFD951"/>
<stop offset="1" stop-color="#FFB222"/>
</linearGradient>
<linearGradient id="paint1_linear_1007_53" x1="2601.02" y1="0.554647" x2="2601.02" y2="5032.16" gradientUnits="userSpaceOnUse">
<stop stop-color="#E58F0D"/>
<stop offset="0.9996" stop-color="#EB7915"/>
</linearGradient>
</defs>
</svg>
